<svg version="1.2" xmlns="http://www.w3.org/2000/svg" viewBox="0 0 145 48" width="145" height="48">
	<title>logo</title>
	<style>
		.s0 { fill: #ffffff } 
	</style>
	<path fill-rule="evenodd" class="s0" d="m23.3 44.8q-0.2 0-0.3 0l-17.6-10.2c-0.1-0.1-0.2-0.3-0.2-0.4v-20.4c0-0.1 0.1-0.3 0.2-0.4l17.6-10.2c0.2 0 0.4 0 0.5 0l17.6 10.2c0.2 0.1 0.3 0.3 0.3 0.4v20.4c0 0.1-0.1 0.3-0.3 0.4l-17.6 10.2q-0.1 0-0.2 0zm-17.2-10.9l17.2 9.9 17.1-9.9v-19.8l-17.1-9.9-17.2 9.9z"/>
	<path fill-rule="evenodd" class="s0" d="m23.3 36.1q-0.2 0-0.3 0l-17.6-11.7q-0.2-0.2-0.2-0.4 0-0.2 0.2-0.4l17.6-11.7c0.2-0.1 0.4-0.1 0.5 0l17.6 11.7q0.2 0.2 0.3 0.4-0.1 0.2-0.3 0.4l-17.6 11.7q-0.1 0-0.2 0zm-16.8-12.1l16.8 11.1 16.8-11.1-16.8-11.1z"/>
	<path fill-rule="evenodd" class="s0" d="m23.3 44.8c-0.3 0-0.5-0.2-0.5-0.4v-40.8c0-0.2 0.2-0.4 0.5-0.4 0.2 0 0.4 0.2 0.4 0.4v40.8c0 0.2-0.2 0.4-0.4 0.4z"/>
	<path fill-rule="evenodd" class="s0" d="m40.9 34.6q-0.1 0-0.2 0l-35.3-20.4c-0.2-0.1-0.3-0.4-0.2-0.6 0.2-0.2 0.4-0.3 0.7-0.2l35.2 20.4c0.2 0.1 0.3 0.4 0.2 0.6-0.1 0.2-0.2 0.2-0.4 0.2z"/>
	<path fill-rule="evenodd" class="s0" d="m5.6 34.6c-0.1 0-0.3 0-0.4-0.2-0.1-0.2 0-0.5 0.2-0.6l35.3-20.4c0.2-0.1 0.5 0 0.6 0.2 0.1 0.2 0 0.5-0.2 0.6l-35.2 20.4q-0.1 0-0.3 0z"/>
	<path fill-rule="evenodd" class="s0" d="m40.9 24.5h-35.3c-0.2 0-0.4-0.2-0.4-0.5 0-0.3 0.2-0.5 0.4-0.5h35.3c0.2 0 0.5 0.2 0.5 0.5 0 0.3-0.3 0.5-0.5 0.5z"/>
	<path fill-rule="evenodd" class="s0" d="m23.3 44.8q-0.2 0-0.3 0l-17.6-10.2c-0.1-0.1-0.2-0.3-0.2-0.4v-20.4c0-0.1 0.1-0.3 0.2-0.4l17.6-10.2c0.2 0 0.4 0 0.5 0l17.6 10.2c0.2 0.1 0.3 0.3 0.3 0.4v20.4c0 0.1-0.1 0.3-0.3 0.4l-17.6 10.2q-0.1 0-0.2 0zm-17.2-10.9l17.2 9.9 17.1-9.9v-19.8l-17.1-9.9-17.2 9.9z"/>
	<path fill-rule="evenodd" class="s0" d="m23.3 36.1q-0.2 0-0.3 0l-17.6-11.7q-0.2-0.2-0.2-0.4 0-0.2 0.2-0.4l17.6-11.7c0.2-0.1 0.4-0.1 0.5 0l17.6 11.7q0.2 0.2 0.3 0.4-0.1 0.2-0.3 0.4l-17.6 11.7q-0.1 0-0.2 0zm-16.8-12.1l16.8 11.1 16.8-11.1-16.8-11.1z"/>
	<path fill-rule="evenodd" class="s0" d="m23.3 44.8c-0.3 0-0.5-0.2-0.5-0.4v-40.8c0-0.2 0.2-0.4 0.5-0.4 0.2 0 0.4 0.2 0.4 0.4v40.8c0 0.2-0.2 0.4-0.4 0.4z"/>
	<path fill-rule="evenodd" class="s0" d="m40.9 34.6q-0.1 0-0.2 0l-35.3-20.4c-0.2-0.1-0.3-0.4-0.2-0.6 0.2-0.2 0.4-0.3 0.7-0.2l35.2 20.4c0.2 0.1 0.3 0.4 0.2 0.6-0.1 0.2-0.2 0.2-0.4 0.2z"/>
	<path fill-rule="evenodd" class="s0" d="m5.6 34.6c-0.1 0-0.3 0-0.4-0.2-0.1-0.2 0-0.5 0.2-0.6l35.3-20.4c0.2-0.1 0.5 0 0.6 0.2 0.1 0.2 0 0.5-0.2 0.6l-35.2 20.4q-0.1 0-0.3 0z"/>
	<path fill-rule="evenodd" class="s0" d="m40.9 24.5h-35.3c-0.2 0-0.4-0.2-0.4-0.5 0-0.3 0.2-0.5 0.4-0.5h35.3c0.2 0 0.5 0.2 0.5 0.5 0 0.3-0.3 0.5-0.5 0.5z"/>
	<path class="s0" d="m67.7 35.1l-8-20.4 2.5 0.1 8 20.3zm-16.5-0.1l8.5-20.2h2.5l-8.3 20.2zm3.9-5.7l0.1-2.2 11.2 0.1v2.2zm21.6 6.3q-1.6 0-2.7-0.5-1.2-0.5-2-1.3-0.8-0.7-1.1-1.7l2-0.8q0.5 1 1.5 1.6 0.9 0.6 2.1 0.6 1.4 0.1 2.3-0.5 1-0.5 1-1.5 0-0.9-0.7-1.4-0.7-0.6-2-1l-1.4-0.3q-2-0.6-3.1-1.6-1-1.1-1-2.5 0-2 1.3-3.1 1.4-1.2 4.1-1.2 1.3 0.1 2.3 0.4 1 0.4 1.8 1.1 0.7 0.7 1.1 1.6l-2.1 0.9q-0.3-1-1.2-1.4-0.9-0.5-2.1-0.5-1.4 0-2.1 0.6-0.8 0.5-0.8 1.5 0 0.6 0.6 1.2 0.6 0.5 1.9 0.8l1.4 0.4q1.4 0.3 2.4 1 0.9 0.7 1.4 1.6 0.5 0.9 0.5 1.9 0 1.3-0.7 2.2-0.7 1-1.9 1.5-1.2 0.5-2.8 0.4zm7.7 5.6l0.2-20.3h2.2l0.1 2.7-0.2 17.6zm7.3-5.4q-1.8 0-3.2-1-1.4-0.9-2.1-2.7-0.8-1.7-0.7-3.9 0-2.3 0.8-4 0.7-1.7 2.1-2.7 1.4-0.9 3.2-0.9 2 0 3.5 1 1.4 1 2.2 2.7 0.8 1.7 0.8 4 0 2.2-0.9 4-0.8 1.7-2.3 2.6-1.5 0.9-3.4 0.9zm-0.5-2.1q1.3 0 2.4-0.7 1.1-0.7 1.7-1.9 0.6-1.2 0.7-2.8 0-1.6-0.6-2.9-0.6-1.2-1.6-1.9-1.1-0.8-2.5-0.8-1.3 0-2.3 0.7-1 0.7-1.6 1.9-0.5 1.3-0.5 2.9-0.1 1.6 0.5 2.8 0.5 1.3 1.5 2 1 0.7 2.3 0.7zm15.7 2.3q-2.1 0-3.7-1-1.6-1-2.5-2.7-0.9-1.8-0.9-4 0-2.2 1-3.9 0.9-1.7 2.5-2.7 1.6-0.9 3.7-0.9 2.1 0 3.5 1 1.5 1 2.3 2.8 0.8 1.8 0.8 4.3l-12-0.1 0.6-0.5q-0.1 1.7 0.5 3 0.7 1.2 1.8 1.9 1.1 0.6 2.6 0.7 1.5 0 2.6-0.7 1-0.7 1.6-1.9l2 1q-0.5 1.1-1.5 2-0.9 0.8-2.1 1.2-1.3 0.5-2.8 0.5zm-4.6-8.7l-0.6-0.5 10 0.1-0.6 0.5q0-1.4-0.5-2.4-0.6-1-1.5-1.6-0.9-0.5-2.1-0.6-1.2 0-2.3 0.6-1 0.5-1.7 1.5-0.7 1-0.7 2.4zm19.7 8.8q-2.1 0-3.8-1-1.6-1-2.5-2.7-0.9-1.7-0.9-3.9 0-2.3 0.9-4 1-1.7 2.6-2.6 1.7-1 3.8-1 2.1 0.1 3.7 1 1.7 1 2.5 2.8l-2.1 0.9q-0.6-1.2-1.7-1.8-1.1-0.7-2.5-0.7-1.4 0-2.5 0.7-1.1 0.6-1.7 1.9-0.7 1.2-0.7 2.8 0 1.6 0.6 2.8 0.6 1.3 1.7 2 1.1 0.7 2.6 0.7 1.4 0 2.5-0.7 1.1-0.7 1.7-2l2.1 1q-0.9 1.8-2.5 2.8-1.7 1.1-3.8 1zm13.8 0.2q-2.1 0-3.3-1.2-1.1-1.1-1.1-3.1l0.2-15.1h2.3l-0.2 14.9q0 1.1 0.6 1.7 0.6 0.6 1.7 0.6 0.3 0 0.6 0 0.4-0.2 0.9-0.6l0.9 1.9q-0.7 0.5-1.3 0.7-0.7 0.2-1.3 0.2zm-6.8-12.9v-2l9.2 0.1v2z"/>
</svg>